<svg width="46" height="46" viewBox="0 0 46 46" fill="none" xmlns="http://www.w3.org/2000/svg">
<path d="M22.8503 15.986C23.6961 15.986 24.7563 15.4589 25.3877 14.7562C25.9595 14.1193 26.3764 13.2298 26.3764 12.3404C26.3764 12.2196 26.3645 12.0988 26.3407 12C25.3996 12.0329 24.2679 12.582 23.5889 13.3177C23.0528 13.8777 22.5644 14.7562 22.5644 15.6566C22.5644 15.7884 22.5882 15.9201 22.6001 15.9641C22.6597 15.975 22.755 15.986 22.8503 15.986ZM19.8722 29.2727C21.0277 29.2727 21.5399 28.559 22.9813 28.559C24.4466 28.559 24.7682 29.2508 26.0548 29.2508C27.3175 29.2508 28.1633 28.1747 28.9614 27.1205C29.8548 25.9126 30.2241 24.7267 30.2479 24.6718C30.1645 24.6498 27.7463 23.7384 27.7463 21.1799C27.7463 18.9618 29.6523 17.9625 29.7595 17.8857C28.4968 16.2166 26.5789 16.1727 26.0548 16.1727C24.6372 16.1727 23.4817 16.9633 22.755 16.9633C21.9688 16.9633 20.9324 16.2166 19.7054 16.2166C17.3706 16.2166 15 17.9955 15 21.3556C15 23.4419 15.8815 25.6491 16.9656 27.0766C17.8947 28.2845 18.7048 29.2727 19.8722 29.2727Z" fill="black"/>
</svg>
