<svg width="46" height="46" viewBox="0 0 46 46" fill="none" xmlns="http://www.w3.org/2000/svg">
<path fill-rule="evenodd" clip-rule="evenodd" d="M31.7543 23.2046C31.7543 22.5664 31.697 21.9527 31.5906 21.3636H23.1143V24.845H27.9579C27.7493 25.97 27.1152 26.9232 26.162 27.5614V29.8196H29.0706C30.7724 28.2527 31.7543 25.9455 31.7543 23.2046Z" fill="#4285F4"/>
<path fill-rule="evenodd" clip-rule="evenodd" d="M23.114 32C25.544 32 27.5813 31.1941 29.0704 29.8195L26.1617 27.5613C25.3558 28.1013 24.3249 28.4204 23.114 28.4204C20.7699 28.4204 18.7858 26.8372 18.0781 24.71H15.0713V27.0418C16.5522 29.9831 19.5958 32 23.114 32Z" fill="#34A853"/>
<path fill-rule="evenodd" clip-rule="evenodd" d="M18.0783 24.7099C17.8983 24.1699 17.7961 23.5931 17.7961 22.9999C17.7961 22.4068 17.8983 21.8299 18.0783 21.2899V18.9581H15.0715C14.462 20.1731 14.1143 21.5477 14.1143 22.9999C14.1143 24.4522 14.462 25.8268 15.0715 27.0418L18.0783 24.7099Z" fill="#FBBC05"/>
<path fill-rule="evenodd" clip-rule="evenodd" d="M23.114 17.5795C24.4354 17.5795 25.6217 18.0336 26.5545 18.9255L29.1358 16.3441C27.5772 14.8918 25.5399 14 23.114 14C19.5958 14 16.5522 16.0168 15.0713 18.9582L18.0781 21.29C18.7858 19.1627 20.7699 17.5795 23.114 17.5795Z" fill="#EA4335"/>
</svg>
