<svg width="46" height="46" viewBox="0 0 46 46" fill="none" xmlns="http://www.w3.org/2000/svg">
<path d="M31.7095 19.1494C31.7222 19.3302 31.7222 19.5111 31.7222 19.6936C31.7222 25.2544 27.4206 31.6677 19.5549 31.6677V31.6644C17.2313 31.6677 14.956 31.0127 13 29.7777C13.3379 29.8177 13.6774 29.8377 14.0178 29.8385C15.9434 29.8402 17.8139 29.2044 19.3288 28.0335C17.4989 27.9994 15.8943 26.8252 15.3337 25.1111C15.9747 25.2327 16.6352 25.2077 17.2644 25.0386C15.2694 24.6419 13.8341 22.9169 13.8341 20.9136C13.8341 20.8952 13.8341 20.8777 13.8341 20.8602C14.4285 21.1861 15.0941 21.3669 15.7749 21.3869C13.8959 20.1511 13.3167 17.6911 14.4514 15.7677C16.6225 18.3969 19.8258 19.9952 23.2646 20.1644C22.92 18.7027 23.3908 17.1711 24.5017 16.1436C26.2241 14.5502 28.9329 14.6319 30.5519 16.3261C31.5096 16.1402 32.4275 15.7944 33.2675 15.3044C32.9483 16.2786 32.2802 17.1061 31.3877 17.6319C32.2353 17.5336 33.0635 17.3102 33.8434 16.9694C33.2692 17.8161 32.5461 18.5536 31.7095 19.1494Z" fill="#1D9BF0"/>
</svg>
