<svg width="106" height="106" viewBox="0 0 106 106" fill="none" xmlns="http://www.w3.org/2000/svg">
<path opacity="0.2" d="M92.75 53C92.75 60.8618 90.4187 68.5471 86.0509 75.0839C81.6831 81.6208 75.475 86.7156 68.2117 89.7242C60.9483 92.7328 52.9559 93.52 45.2452 91.9862C37.5344 90.4524 30.4517 86.6666 24.8925 81.1075C19.3334 75.5484 15.5476 68.4656 14.0138 60.7548C12.48 53.0441 13.2672 45.0517 16.2758 37.7883C19.2844 30.525 24.3792 24.3169 30.9161 19.9491C37.453 15.5813 45.1382 13.25 53 13.25C63.5424 13.25 73.6529 17.4379 81.1075 24.8925C88.5621 32.3471 92.75 42.4576 92.75 53Z" fill="black"/>
<path d="M53 9.9375C44.4831 9.9375 36.1574 12.4631 29.0758 17.1948C21.9942 21.9266 16.4748 28.652 13.2155 36.5207C9.95616 44.3893 9.10338 53.0478 10.765 61.4011C12.4265 69.7544 16.5278 77.4274 22.5502 83.4498C28.5726 89.4722 36.2456 93.5735 44.5989 95.2351C52.9522 96.8966 61.6107 96.0439 69.4793 92.7846C77.348 89.5253 84.0734 84.0058 88.8052 76.9242C93.5369 69.8426 96.0625 61.517 96.0625 53C96.0505 41.5828 91.5097 30.6367 83.4365 22.5635C75.3633 14.4904 64.4172 9.94956 53 9.9375ZM53 89.4375C45.7934 89.4375 38.7485 87.3005 32.7564 83.2967C26.7643 79.2929 22.094 73.6021 19.3362 66.944C16.5783 60.2859 15.8567 52.9596 17.2627 45.8914C18.6686 38.8232 22.1389 32.3307 27.2348 27.2348C32.3307 22.1389 38.8232 18.6686 45.8914 17.2626C52.9596 15.8567 60.286 16.5783 66.944 19.3361C73.6021 22.094 79.2929 26.7643 83.2967 32.7564C87.3005 38.7485 89.4375 45.7933 89.4375 53C89.4266 62.6605 85.5841 71.9221 78.7531 78.7531C71.9221 85.5841 62.6605 89.4265 53 89.4375ZM79.5 53C79.5 53.8785 79.151 54.7211 78.5298 55.3423C77.9086 55.9635 77.066 56.3125 76.1875 56.3125H53C52.1215 56.3125 51.2789 55.9635 50.6577 55.3423C50.0365 54.7211 49.6875 53.8785 49.6875 53V29.8125C49.6875 28.934 50.0365 28.0914 50.6577 27.4702C51.2789 26.849 52.1215 26.5 53 26.5C53.8785 26.5 54.7211 26.849 55.3423 27.4702C55.9635 28.0914 56.3125 28.934 56.3125 29.8125V49.6875H76.1875C77.066 49.6875 77.9086 50.0365 78.5298 50.6577C79.151 51.2789 79.5 52.1215 79.5 53Z" fill="black"/>
</svg>
