<svg width="85" height="85" viewBox="0 0 85 85" fill="none" xmlns="http://www.w3.org/2000/svg">
<path d="M80.8857 32.1625L80.8857 3.69926L53.4482 3.69925L23.4465 39.8552L44.5374 58.7666L80.8857 32.1625Z" fill="#F4F4F4" stroke="white"/>
<path d="M49.6247 71.2673L44.286 76.606C43.9727 76.9197 43.6006 77.1685 43.1911 77.3383C42.7815 77.5081 42.3425 77.5955 41.8992 77.5955C41.4558 77.5955 41.0168 77.5081 40.6073 77.3383C40.1978 77.1685 39.8257 76.9197 39.5124 76.606L28.6831 65.7852L14.4929 79.9796C14.1796 80.2933 13.8076 80.5421 13.398 80.7119C12.9885 80.8817 12.5495 80.9691 12.1061 80.9691C11.6628 80.9691 11.2238 80.8817 10.8142 80.7119C10.4047 80.5421 10.0326 80.2933 9.7193 79.9796L4.36793 74.6409C3.73574 74.0083 3.38061 73.1505 3.38061 72.2562C3.38061 71.3618 3.73574 70.5041 4.36793 69.8715L18.5623 55.6644L7.74153 44.8521C7.42787 44.5387 7.17903 44.1667 7.00926 43.7571C6.83949 43.3476 6.7521 42.9086 6.7521 42.4652C6.7521 42.0219 6.83949 41.5829 7.00926 41.1733C7.17903 40.7638 7.42787 40.3917 7.74153 40.0784L13.0802 34.7228C13.3936 34.4092 13.7656 34.1603 14.1752 33.9906C14.5847 33.8208 15.0237 33.7334 15.4671 33.7334C15.9104 33.7334 16.3494 33.8208 16.759 33.9906C17.1685 34.1603 17.5406 34.4092 17.8539 34.7228L49.6079 66.4768C49.9252 66.7893 50.1775 67.1616 50.3502 67.5721C50.5229 67.9826 50.6126 68.4232 50.6142 68.8685C50.6158 69.3139 50.5291 69.7552 50.3593 70.1669C50.1895 70.5786 49.9398 70.9526 49.6247 71.2673Z" fill="#326A00"/>
<path d="M80.9737 1.41743e-05L53.985 9.45542e-06C53.4683 -4.15662e-05 52.9586 0.118564 52.495 0.346681C52.0315 0.574798 51.6265 0.906329 51.3114 1.31571L24.3226 36.4053L20.249 32.3401C19.6224 31.7128 18.8782 31.2151 18.0591 30.8756C17.24 30.536 16.362 30.3613 15.4753 30.3613C14.5887 30.3613 13.7107 30.536 12.8916 30.8756C12.0725 31.2151 11.3283 31.7128 10.7017 32.3401L5.35034 37.6957C4.72364 38.3223 4.22651 39.0661 3.88734 39.8849C3.54816 40.7036 3.37359 41.5811 3.37359 42.4672C3.37359 43.3534 3.54816 44.2309 3.88734 45.0496C4.22651 45.8684 4.72364 46.6122 5.35034 47.2388L13.7843 55.6728L1.97674 67.4804C1.35004 68.1069 0.852909 68.8508 0.513735 69.6695C0.17456 70.4882 -1.2478e-05 71.3657 -1.26329e-05 72.2519C-1.27879e-05 73.1381 0.174559 74.0156 0.513734 74.8343C0.852908 75.653 1.35004 76.3969 1.97674 77.0234L7.3281 82.3706C8.59332 83.635 10.3088 84.3452 12.0975 84.3452C13.8862 84.3452 15.6017 83.635 16.8669 82.3706L28.6745 70.563L37.1085 78.997C37.7352 79.6243 38.4793 80.122 39.2984 80.4615C40.1175 80.8011 40.9955 80.9758 41.8822 80.9758C42.7689 80.9758 43.6468 80.8011 44.4659 80.4615C45.285 80.122 46.0292 79.6243 46.6558 78.997L52.0072 73.6414C52.6339 73.0148 53.131 72.271 53.4702 71.4523C53.8094 70.6336 53.9839 69.756 53.9839 68.8699C53.9839 67.9837 53.8094 67.1062 53.4702 66.2875C53.131 65.4688 52.6339 64.7249 52.0072 64.0983L47.942 60.0331L83.0316 33.0444C83.4421 32.7284 83.7743 32.3221 84.0025 31.857C84.2307 31.3918 84.3487 30.8804 84.3473 30.3624L84.3473 3.37361C84.3473 2.47888 83.9919 1.62079 83.3592 0.988119C82.7265 0.355447 81.8685 1.43307e-05 80.9737 1.41743e-05ZM12.106 77.5927L6.75459 72.2456L18.5622 60.438L23.9093 65.7851L12.106 77.5927ZM41.8822 74.2191L10.1282 42.4694L15.4838 37.1096L47.2378 68.8678L41.8822 74.2191ZM77.6001 28.7009L43.1304 55.2173L38.517 50.6039L59.7454 29.3756C60.3778 28.7426 60.7329 27.8842 60.7325 26.9894C60.7321 26.0946 60.3763 25.2365 59.7433 24.6041C59.1102 23.9716 58.2519 23.6165 57.3571 23.6169C56.4622 23.6173 55.6042 23.9732 54.9717 24.6062L33.7434 45.8303L29.1342 41.2169L55.6464 6.7472L77.6001 6.74721L77.6001 28.7009Z" fill="black"/>
</svg>
