<svg width="19" height="19" viewBox="0 0 19 19" fill="none" xmlns="http://www.w3.org/2000/svg">
<g clip-path="url(#clip0_714_23977)">
<path d="M12.9401 11.9061L10.5331 9.5L12.9401 7.09395C13.008 7.02605 13.0619 6.94545 13.0986 6.85673C13.1353 6.76802 13.1543 6.67295 13.1543 6.57693C13.1543 6.48091 13.1353 6.38583 13.0986 6.29712C13.0619 6.20841 13.008 6.1278 12.9401 6.05991C12.8722 5.99201 12.7916 5.93815 12.7029 5.90141C12.6142 5.86466 12.5191 5.84575 12.4231 5.84575C12.3271 5.84575 12.232 5.86466 12.1433 5.90141C12.0546 5.93815 11.974 5.99201 11.9061 6.05991L9.5 8.46688L7.09395 6.05991C7.02605 5.99201 6.94544 5.93815 6.85673 5.90141C6.76802 5.86466 6.67295 5.84575 6.57693 5.84575C6.48091 5.84575 6.38583 5.86466 6.29712 5.90141C6.20841 5.93815 6.1278 5.99201 6.05991 6.05991C5.99201 6.1278 5.93815 6.20841 5.90141 6.29712C5.86466 6.38583 5.84575 6.48091 5.84575 6.57693C5.84575 6.67295 5.86466 6.76802 5.90141 6.85673C5.93815 6.94545 5.99201 7.02605 6.05991 7.09395L8.46688 9.5L6.05991 11.9061C5.92278 12.0432 5.84575 12.2292 5.84575 12.4231C5.84575 12.617 5.92278 12.803 6.05991 12.9401C6.19703 13.0772 6.38301 13.1543 6.57693 13.1543C6.77085 13.1543 6.95682 13.0772 7.09395 12.9401L9.5 10.5331L11.9061 12.9401C11.974 13.008 12.0546 13.0619 12.1433 13.0986C12.232 13.1353 12.3271 13.1543 12.4231 13.1543C12.5191 13.1543 12.6142 13.1353 12.7029 13.0986C12.7916 13.0619 12.8722 13.008 12.9401 12.9401C13.008 12.8722 13.0619 12.7916 13.0986 12.7029C13.1353 12.6142 13.1543 12.5191 13.1543 12.4231C13.1543 12.3271 13.1353 12.232 13.0986 12.1433C13.0619 12.0546 13.008 11.974 12.9401 11.9061ZM19 9.5C19 7.62108 18.4428 5.78435 17.399 4.22209C16.3551 2.65982 14.8714 1.44218 13.1355 0.72315C11.3996 0.00411724 9.48946 -0.184016 7.64664 0.182544C5.80383 0.549103 4.11109 1.45389 2.78249 2.78249C1.45389 4.11109 0.549104 5.80382 0.182544 7.64664C-0.184015 9.48946 0.00411616 11.3996 0.723149 13.1355C1.44218 14.8714 2.65982 16.3551 4.22209 17.399C5.78435 18.4428 7.62108 19 9.5 19C12.0187 18.9973 14.4336 17.9956 16.2146 16.2146C17.9956 14.4336 18.9973 12.0187 19 9.5ZM17.5385 9.5C17.5385 11.0899 17.067 12.644 16.1837 13.9659C15.3005 15.2878 14.045 16.3182 12.5762 16.9266C11.1074 17.535 9.49108 17.6942 7.93178 17.384C6.37247 17.0738 4.94015 16.3083 3.81595 15.1841C2.69175 14.0599 1.92616 12.6275 1.616 11.0682C1.30583 9.50892 1.46502 7.89265 2.07343 6.42382C2.68185 4.95498 3.71216 3.69955 5.03407 2.81627C6.35599 1.93299 7.91014 1.46154 9.5 1.46154C11.6312 1.46396 13.6744 2.31164 15.1814 3.81862C16.6884 5.3256 17.536 7.36881 17.5385 9.5Z" fill="#27361A"/>
</g>
<defs>
<clipPath id="clip0_714_23977">
<rect width="19" height="19" fill="white" transform="matrix(1 0 0 -1 0 19)"/>
</clipPath>
</defs>
</svg>
